<?xml version="1.0" encoding="utf-8"?>
<!-- Generator: Adobe Illustrator 27.5.0, SVG Export Plug-In . SVG Version: 6.00 Build 0)  -->
<svg version="1.1" id="_x3C_Layer_x3E_" xmlns="http://www.w3.org/2000/svg" xmlns:xlink="http://www.w3.org/1999/xlink" x="0px"
	 y="0px" viewBox="0 0 2760 1840" style="enable-background:new 0 0 2760 1840;" xml:space="preserve">
<rect style="fill:#FFFFFF;" width="2760" height="1840"/>
<g>
	<path style="fill:#EBF3FA;" d="M2520.015,1605.686c-145.143,0-2259.474,0.475-2260.696-2.978l-0.206-0.437
		c0,0-0.207-0.427-0.207-0.64c-0.809-1.726-325.771-486.577,179.424-824.105C635.997,645.462,425.96,558.28,583.144,411.259
		c180.646-168.951,377.786,17.95,578.659-58.662c35.492-13.523,71.106-35.291,106.758-68.693
		c20.067-18.782,42.062-35.209,65.607-49.393c74.307-44.943,162.071-65.957,247.652-71.83
		c224.447-15.301,477.035,70.764,607.386,196.556c26.242,25.331,145.578,156.396,51.51,336.545
		c-59.395,113.74,189.421,222.372,277.836,352.254C2743.345,1378.258,2522.055,1601.381,2520.015,1605.686z"/>
	<g style="opacity:0.8;">
		<path style="fill:#AEC3FF;" d="M1330.47,721.884c0,0,96.411-36.457,65.051-110.276c0,0-26.974-46.486-60.946-62.497
			c0,0,3.846,103.641-15.482,103.165c-19.329-0.476,4.041-115.795,4.041-115.795s-86.917-59.12-124.211-61.079
			c0,0,43.333,107.142,24.717,101.923c-18.616-5.219-68.888-114.614-68.888-114.614s-93.381-32.202-117.339,22.403
			c-23.957,54.605-3.326,86.802,10.369,92.494c13.695,5.693,105.181,18.211,101.029,29.713c-4.15,11.502-68.66,21.221-101.447,5.388
			c0,0,23.887,99.374,74.403,102.105c50.516,2.73,70.558-25.787,101.745-23.531c31.187,2.255,52.471,13.938,35.811,19.925
			c-16.662,5.987-68-7.425-96.079,10.008c-28.079,17.434-50.195,27.453-5.373,43.879c44.823,16.428,128.72,22.956,150.66-10.127
			C1330.47,721.884,1330.47,721.884,1330.47,721.884z"/>
		<g>
			<path style="fill:#AEC3FF;" d="M1078.617,509.484c0,0,236.918,118.008,251.853,212.399c0,0-7.235,40.14,10.725,90.123
				l-2.668,17.787c0,0-17.013-64.392-29.996-74.827C1308.53,754.967,1376.008,685.067,1078.617,509.484z"/>
			<path style="fill:#AEC3FF;" d="M1341.194,812.007c0,0,29.652,64.08-2.895,131.782l-9.481-4.137c0,0,21.324-76.749,7.133-119.089
				C1321.762,778.223,1341.194,812.007,1341.194,812.007z"/>
		</g>
	</g>
	<g>
		<path style="fill:#D2E0FF;" d="M986.531,802.407c0,0-31.086-231.856-208.969-274.575c0,0-34.662-7.774-50.16,29.71
			c-15.499,37.482,54.236,44.65,95.825,64.449C864.817,641.79,958.847,717.601,986.531,802.407z"/>
		<path style="fill:#D2E0FF;" d="M994.815,760.409c0,0,37.281-185.829-87.747-265.433c0,0-24.509-15.089-46.26,9.545
			c-21.751,24.633,29.788,48.501,56.435,74.629C943.888,605.279,995.951,688.14,994.815,760.409z"/>
	</g>
	<g>
		<path style="fill:#D2E0FF;" d="M1988.34,532.813c-20.488,7.912-156.379,22.982-150.666,40.161
			c5.699,17.181,100.818,34.004,149.947,11.811c0,0-18.302,68.399-53.836,112.293c-44.004,0.218-106.334,0.508-183.323,0.864
			c-8.47-2.523-17.137-3.953-26.539-3.517c-11.178,0.518-21.536,1.891-30.45,3.78c-28.151,0.146-57.876,0.283-89.013,0.428
			l-98.271,0.455c-31.936-27.845-60.188-71.238-33.86-129.093c0,0,41.682-67.78,92.57-90.2c0,0-9.596,153.269,19.023,153.296
			c28.633,0.014-1.61-171.559-1.61-171.559s130.896-84.221,186.162-85.714c0,0-68.185,156.947-40.428,149.933
			c27.756-7.028,106.29-167.051,106.29-167.051s139.438-44.142,172.833,37.585C2040.578,478.027,2008.828,524.901,1988.34,532.813z"
			/>
		<g>
			<path style="fill:#D2E0FF;" d="M1552.397,882.188c-1.134,3.615-2.051,6.618-2.725,8.819
				C1550.459,887.977,1551.377,885.017,1552.397,882.188z"/>
			<path style="fill:#D2E0FF;" d="M1945.114,430.884c-219.765,122.32-307.862,210.128-340.654,267.75l-26.187,0.12
				C1648.527,570.519,1937.706,434.353,1945.114,430.884z"/>
		</g>
	</g>
	<path style="fill:#D2E0FF;" d="M893.742,1604.415l100.85-0.468c5.384-4.609-3.809-14.977-13.367-15.633
		c-4.15-0.294-9.393,0.6-15.384,1.893c-1.473-18.426-9.782-101.252-39.636-97.783c-33.566,3.883,0.17,36.49,9.753,55.845
		c7.1,14.334,14.614,34.904,18.05,44.611c-2.725,0.604-5.545,1.196-8.426,1.741c-4.514-13.647-21.29-59.545-42.34-56.77
		c-24.716,3.252-14.69,21.639,2.889,32.499c12.896,7.986,28.741,19.35,36.269,24.84c-6.352,1.066-12.984,1.797-19.716,1.671
		C905.407,1596.531,896.999,1601.662,893.742,1604.415z"/>
	<rect x="1216.312" y="1450.758" style="fill:#143A72;" width="287.343" height="116.719"/>
	<path style="fill:#1C468A;" d="M1593.997,1601.773h-468.028l0,0c0-18.941,15.355-34.297,34.298-34.297h399.433
		C1578.641,1567.477,1593.997,1582.832,1593.997,1601.773L1593.997,1601.773z"/>
	<g>
		<path style="fill:#2A4E96;" d="M2087.375,1468.568H640.764c-21.828,0-39.523-17.696-39.523-39.524V707.996
			c0-21.829,17.695-39.524,39.523-39.524h1446.611c21.829,0,39.525,17.695,39.525,39.524v721.048
			C2126.9,1450.872,2109.204,1468.568,2087.375,1468.568z"/>
		<path style="fill:#739AF0;" d="M2060.256,1439.636H667.884c-21.829,0-39.524-17.696-39.524-39.525V736.929
			c0-21.828,17.695-39.523,39.524-39.523h1392.372c21.828,0,39.523,17.695,39.523,39.523v663.182
			C2099.779,1421.939,2082.084,1439.636,2060.256,1439.636z"/>
	</g>
	<g>
		<rect x="687.373" y="1267.624" style="fill:#FFFFFF;" width="1304.318" height="10.933"/>
		<rect x="687.236" y="1267.624" style="fill:#F77D48;" width="715.096" height="10.933"/>
		<path style="fill:#F77D48;" d="M1376.279,1273.091c0-10.265,8.32-18.585,18.584-18.585c10.266,0,18.586,8.32,18.586,18.585
			c0,10.264-8.32,18.585-18.586,18.585C1384.6,1291.676,1376.279,1283.354,1376.279,1273.091z"/>
	</g>
	<g>
		
			<ellipse transform="matrix(0.7071 -0.7071 0.7071 0.7071 -297.5606 1251.6404)" style="fill:#F77D48;" cx="1362.083" cy="985.008" rx="224.018" ry="224.018"/>
		<path style="fill:#FFFFFF;" d="M1301.609,867.495v235.024c0,12.668,14.514,19.849,24.583,12.164l153.988-117.514
			c8.024-6.123,8.024-18.203,0-24.326L1326.192,855.33C1316.123,847.646,1301.609,854.827,1301.609,867.495z"/>
	</g>
	<g>
		<circle style="fill:#F77D48;" cx="1377.959" cy="1355.806" r="47.121"/>
		<path style="fill:#F77D48;" d="M1185.191,1355.806c0-26.023,21.098-47.121,47.122-47.121c26.023,0,47.12,21.098,47.12,47.121
			c0,26.024-21.097,47.121-47.12,47.121C1206.289,1402.927,1185.191,1381.83,1185.191,1355.806z"/>
		<path style="fill:#F77D48;" d="M1478.451,1355.806c0-26.023,21.098-47.121,47.122-47.121c26.023,0,47.12,21.098,47.12,47.121
			c0,26.024-21.097,47.121-47.12,47.121C1499.549,1402.927,1478.451,1381.83,1478.451,1355.806z"/>
		<path style="fill:#FFFFFF;" d="M1239.427,1368.97v-26.328c0-3.343-3.829-5.238-6.486-3.21l-17.25,13.164
			c-2.119,1.616-2.119,4.804,0,6.42l17.25,13.164C1235.598,1374.208,1239.427,1372.313,1239.427,1368.97z"/>
		<path style="fill:#FFFFFF;" d="M1517.462,1342.989v25.634c0,3.485,3.992,5.46,6.763,3.346l16.796-12.816
			c2.208-1.686,2.208-5.009,0-6.693l-16.796-12.816C1521.454,1337.528,1517.462,1339.504,1517.462,1342.989z"/>
		<g>
			<path style="fill:#FFFFFF;" d="M1365.912,1377.131L1365.912,1377.131c-2.956,0-5.354-2.397-5.354-5.355v-31.94
				c0-2.956,2.398-5.354,5.354-5.354l0,0c2.958,0,5.355,2.397,5.355,5.354v31.94
				C1371.268,1374.733,1368.87,1377.131,1365.912,1377.131z"/>
			<path style="fill:#FFFFFF;" d="M1391.973,1377.131L1391.973,1377.131c-2.958,0-5.354-2.397-5.354-5.355v-31.94
				c0-2.956,2.396-5.354,5.354-5.354l0,0c2.957,0,5.354,2.397,5.354,5.354v31.94
				C1397.327,1374.733,1394.93,1377.131,1391.973,1377.131z"/>
		</g>
	</g>
	<g>
		
			<ellipse transform="matrix(0.7071 -0.7071 0.7071 0.7071 -266.4673 1726.3784)" style="fill:#EBF3FA;" cx="1950.689" cy="1184.844" rx="24.973" ry="24.973"/>
		<path style="fill:#EBF3FA;" d="M1995.431,1158.021c-2.048,0-4.099-0.75-5.708-2.266c-13.119-12.363-26.685-18.38-40.34-17.845
			c-21.25,0.811-36.417,17.204-36.568,17.369c-3.087,3.391-8.346,3.657-11.748,0.58c-3.4-3.076-3.684-8.313-0.619-11.725
			c0.794-0.884,19.772-21.672,48.088-22.854c18.339-0.77,36.05,6.756,52.605,22.357c3.346,3.152,3.502,8.421,0.35,11.767
			C1999.852,1157.143,1997.644,1158.021,1995.431,1158.021z"/>
		<path style="fill:#EBF3FA;" d="M2021.328,1121.949c-2.049,0-4.1-0.75-5.707-2.266c-21.787-20.529-44.508-30.494-67.486-29.569
			c-35.743,1.414-60.96,28.809-61.209,29.086c-3.082,3.402-8.344,3.675-11.751,0.6c-3.409-3.074-3.691-8.321-0.625-11.736
			c1.201-1.339,29.918-32.79,72.729-34.576c27.703-1.163,54.535,10.31,79.76,34.079c3.346,3.153,3.502,8.422,0.35,11.768
			C2025.75,1121.071,2023.541,1121.949,2021.328,1121.949z"/>
		<path style="fill:#EBF3FA;" d="M2048.613,1086.803c-2.048,0-4.1-0.751-5.707-2.267c-30.921-29.136-63.262-43.257-96.093-41.919
			c-51.014,2.048-86.814,41.039-87.17,41.432c-3.079,3.409-8.339,3.684-11.753,0.609c-3.411-3.073-3.694-8.324-0.626-11.74
			c1.631-1.816,40.606-44.505,98.69-46.93c37.555-1.57,74.01,14.056,108.368,46.433c3.346,3.152,3.503,8.42,0.35,11.766
			C2053.035,1085.926,2050.826,1086.803,2048.613,1086.803z"/>
	</g>
	<g>
		<path style="fill:#F77D48;" d="M2116.05,1603.72h-315.53c-24.312,0-44.019-19.707-44.019-44.018v-270.647
			c0-24.31,19.707-44.018,44.019-44.018h315.53c24.311,0,44.018,19.708,44.018,44.018v270.647
			C2160.067,1584.013,2140.36,1603.72,2116.05,1603.72z"/>
		<path style="fill:#F99746;" d="M2095.473,1580.328h-274.377c-21.139,0-38.275-17.137-38.275-38.276v-235.347
			c0-21.14,17.137-38.276,38.275-38.276h274.377c21.139,0,38.275,17.137,38.275,38.276v235.347
			C2133.748,1563.191,2116.611,1580.328,2095.473,1580.328z"/>
		<path style="fill:#143A72;" d="M2010.387,1541.448h-108.315c-2.941,0-5.325-2.384-5.325-5.325l0,0c0-2.94,2.384-5.324,5.325-5.324
			h108.315c2.941,0,5.325,2.384,5.325,5.324l0,0C2015.712,1539.064,2013.328,1541.448,2010.387,1541.448z"/>
		<path style="fill:#EBF3FA;" d="M1809.999,1300.019c0-4.399,3.567-7.965,7.965-7.965c4.399,0,7.965,3.565,7.965,7.965
			c0,4.397-3.565,7.964-7.965,7.964C1813.566,1307.982,1809.999,1304.416,1809.999,1300.019z"/>
		<path style="fill:#143A72;" d="M1845.137,1300.019c0-4.399,3.564-7.965,7.963-7.965c4.399,0,7.965,3.565,7.965,7.965
			c0,4.397-3.565,7.964-7.965,7.964C1848.701,1307.982,1845.137,1304.416,1845.137,1300.019z"/>
		<path style="fill:#739AF0;" d="M1883.084,1300.019c0-4.399,3.564-7.965,7.964-7.965c4.398,0,7.964,3.565,7.964,7.965
			c0,4.397-3.565,7.964-7.964,7.964C1886.648,1307.982,1883.084,1304.416,1883.084,1300.019z"/>
	</g>
	<g>
		<path style="fill:#163560;" d="M2301.006,744.148c-16.354-8.484-29.457-3.151-29.457-3.151
			c-50.038-5.877-64.636,52.478-63.957,72.558c0.67,20.077,2.969,41.645-19.377,67.729c-64.548,75.35,70.638,78.674,70.638,78.674
			c1.144-60.201,73.309-38.235,70.146-32.136C2421.508,950.023,2338.196,763.442,2301.006,744.148z"/>
		<path style="fill:#FFB27D;" d="M2111.486,997.894c0,0-10.479-15.953-18.926-16.266c-8.446-0.313-24.087-4.693-22.836-1.564
			c1.252,3.128,10.949,3.44,11.888,5.317c0.938,1.877-14.39,4.692-18.77,5.005c-4.379,0.313-14.702,0-14.39,2.189
			c0.313,2.189,18.606,11.263,31.514,10.011c12.907-1.251,28.861,3.754,28.861,3.754L2111.486,997.894z"/>
		<path style="fill:#F77D48;" d="M2235.248,999.46c0,0-4.783,9.471-13.459,20.353c-10.457,13.097-26.579,28.227-46.822,31.213
			c-9.67,1.426-19.125-0.654-27.817-4.516c-0.022-0.008-0.031-0.008-0.031-0.008c-24.585-10.913-43.071-36.012-43.071-36.012
			c-4.334-11.819,2.758-19.833,2.758-19.833s49.644,11.165,54.371,8.802c4.729-2.364,32.309-81.818,38.872-91.803
			c6.572-9.983,28.951-15.168,28.951-15.168L2235.248,999.46z"/>
		<path style="fill:#E06338;" d="M2221.789,1019.813c-10.457,13.097-26.579,28.227-46.822,31.213
			c-9.67,1.426-19.125-0.654-27.817-4.516c0.962,0.126,25.516,3.16,35.303-14.35c9.984-17.864,20.78-46.231,35.609-36.775
			C2224.46,999.468,2224.177,1009.609,2221.789,1019.813z"/>
		<path style="fill:#5F7FB2;" d="M2420.461,1535.339c0,0,15.147,13.824,12.191,23.647c-2.955,9.822-16.625,16.37-18.474,28.376
			c-1.847,12.005-9.235,18.554-15.886,18.554s-31.707,0-31.707,0s-4.896-8.448,6.928-10.995
			c11.822-2.546,16.281-16.653,15.542-29.751c-0.739-13.097,1.108-30.559,1.108-30.559l25.123-5.821L2420.461,1535.339z"/>
		<path style="fill:#5F7FB2;" d="M2292.246,1541.207c0,0,5.45,58.565-1.2,61.839l-85.11-0.174c0,0,0-9.823,13.67-12.005
			c13.67-2.184,37.687-10.187,41.75-28.014C2265.42,1545.027,2292.246,1541.207,2292.246,1541.207z"/>
		<path style="fill:#FFB27D;" d="M2352.897,1121.053c-17.515-39.277-28.231-50.551-26.185-62.742
			c1.521-9.074-4.638-169.175-4.638-169.175c-2.077-0.643-6.243-1.221-8.521-1.727c-7.184-1.595-13.13-6.642-15.604-13.571
			c-2.98-8.348-5.351-20.676-5.296-36.123l-2.243,0.442l-37.723,7.47c0,0,0.857,11.871,0.883,23.056
			c0,0.092,0.001,0.186,0.001,0.277c0.046,9.714-6.325,18.286-15.657,20.98c-4.765,1.374-8.911,2.551-8.911,2.551
			s-13.853,39.546-16.497,80.173c-2.646,40.628,25.188,58.277-0.211,139.463C2186.365,1195.045,2362.572,1142.757,2352.897,1121.053
			z"/>
		<path style="fill:#E8945B;" d="M2252.687,845.627c0,0,0.858,11.871,0.884,23.056c21.109-0.596,32.268-19.853,36.84-30.525
			L2252.687,845.627z"/>
		<path style="fill:#FFB27D;" d="M2245.638,856.217c0,0,49.944,0.823,49.979-30.287c0.034-31.11,6.504-51.957-25.384-53.798
			c-31.886-1.842-38.095,10.023-40.632,20.404C2227.063,802.917,2232.646,855.2,2245.638,856.217z"/>
		<path style="fill:#163560;" d="M2247.486,771.369c0,0,13.674,36.499,34.66,41.896c20.986,5.398,30.09-0.227,30.09-0.227
			s-16.098-12.787-19.438-35.109C2292.798,777.929,2257.801,753.997,2247.486,771.369z"/>
		<path style="fill:#163560;" d="M2250.875,774.333c0,0-10.141,3.79-14.313,11.186c-4.082,7.232-7.559,16.81-6.752,28.561
			c0,0-10.302-24.809,1.276-38.843C2243.362,760.356,2250.875,774.333,2250.875,774.333z"/>
		<path style="fill:#EBF3FA;" d="M2256.505,836.916c0,0-3.446,4.535-10.342,4.208c-5.554-0.263-7.695-5.081-7.695-5.081
			S2248.67,833.59,2256.505,836.916z"/>
		<path style="fill:#F77D48;" d="M2357.718,959.958c0,0,1.269,17.881,0,39.338c-0.843,14.224-15.23,33.275-17.272,37.988
			c-5.122,11.819-10.897,13.742-10.897,13.742l-44.688,10.953l-15.713,3.845l-49.549-14.798c0,0-22.568-62.993-13.507-98.452
			c9.063-35.46,22.907-60.085,22.907-60.085s40.433,39.589,93.078-3.357L2357.718,959.958z"/>
		<path style="fill:#E06338;" d="M2344.638,1005.102c-0.843,14.224-2.15,27.47-4.192,32.183
			c-5.122,11.819-10.897,13.742-10.897,13.742l-44.688,10.953l-19.408-5.705c0,0,63.796-15.875,71.517-89.993L2344.638,1005.102z"/>
		<path style="fill:#143A72;" d="M2222.75,1060.588c0,0-24.537,76.378-26.113,102.381c-1.576,26.004,46.904,369.409,48.855,381.391
			c1.839,11.295,15.863,18.494,15.863,18.494s6.451,3.806,15.656,1.206c12.773-3.606,16.811-7.925,16.811-7.925
			s19.1-244.914,7.28-332.401c-11.82-87.488-11.959-163.146-11.959-163.146H2222.75z"/>
		<path style="fill:#2A4E96;" d="M2326.713,1058.311c0,0,37.43,50.221,40.919,84.17c3.488,33.95,5.474,153.199,12.907,186.296
			c7.434,33.096,34.748,96.786,34.748,200.014c0,0-2.839,5.916-11.604,9.069c-2.804,1.007-6.56,1.984-10.206,2.82
			c-7.229,1.658-14.646-1.875-17.947-8.519c-18.465-37.18-77.287-157.095-80.303-181.985
			c-2.135-17.616-20.707-134.201-61.22-202.613c-9.727-16.424,5.969-81.738,5.969-81.738L2326.713,1058.311z"/>
		<path style="fill:#FFFFFF;" d="M2255.395,837.748c0,0-0.862,3.667-9.983,3.102c0,0-7.658-0.474-7.424-4.503
			C2237.987,836.347,2245.413,833.481,2255.395,837.748z"/>
		<path style="fill:#233862;" d="M2218.83,1048.797c0,0,9.852,7.793,29.42,8.187c23.375,0.471,81.295-5.959,81.295-5.959
			s2.574,7.19,2.469,14.783c0,0-70.74,17.843-111.727,2.605C2220.287,1068.413,2215.001,1058.467,2218.83,1048.797z"/>
		<g>
			<path style="fill:#FFFFFF;" d="M2242.643,1077.127c-5.882,0-10.667-5.416-10.667-12.072s4.785-12.071,10.667-12.071
				s10.666,5.415,10.666,12.071S2248.524,1077.127,2242.643,1077.127z M2242.643,1056.519c-3.932,0-7.132,3.829-7.132,8.536
				c0,4.708,3.2,8.537,7.132,8.537c3.931,0,7.131-3.829,7.131-8.537C2249.773,1060.348,2246.573,1056.519,2242.643,1056.519z"/>
		</g>
		<path style="fill:#FFB27D;" d="M2307.487,1116.262c0,0-11.735,6.279-16.367,13.795c-4.633,7.515-9.883,10.911-7.618,12.764
			c2.266,1.854,9.265-7.617,9.265-5.353s-5.971,10.707-8.029,14.412c-2.06,3.706,1.412,7,10.485,4.735
			c9.074-2.265,17.309-11.324,18.544-14.206s8.223-17.089,8.223-17.089L2307.487,1116.262z"/>
		<path style="fill:#F77D48;" d="M2322.077,889.133c0,0,35.453,2.484,49.043,35.521c13.591,33.037,17.011,74.399,17.011,83.731
			c0,35.142-4.17,84.109-69.642,124.096c0,0-16.504-9.563-16.019-16.219c0,0,60.542-100.465,6.598-164.211
			C2298.537,939.606,2322.077,889.133,2322.077,889.133z"/>
	</g>
	<path style="fill:#233862;" d="M2617.047,1609.595H157.542c-1.68,0-3.055-1.374-3.055-3.055v-1.712c0-1.68,1.374-3.055,3.055-3.055
		h2459.505c1.68,0,3.056,1.375,3.056,3.055v1.712C2620.103,1608.221,2618.727,1609.595,2617.047,1609.595z"/>
	<g>
		<path style="fill:#EA8336;" d="M707.862,994.173c-0.672-9.052-1.773-10.1-1.773-10.1s-81.588-7.706-94.872-11.565
			c-7.878-2.289-96.186-55.231-96.186-55.231l-70.2,42.688c0,0,138.336,55.49,158.918,58.427
			c34.012,4.854,91.602-13.347,91.602-13.347S708.391,1001.283,707.862,994.173z"/>
		<path style="fill:#214C7F;" d="M490.269,1570.186c0,0,1.081,26.232,6.118,32.609l70.072,0.406
			c-0.489-2.705-0.783-8.962-10.472-10.654c-12.244-2.129-26.623-10.671-34.034-26.854
			C514.148,1548.668,490.269,1570.186,490.269,1570.186z"/>
		<path style="fill:#214C7F;" d="M352.758,1566.404c0,0-4.886,34.85,1.748,35.459c0.882,0.08,28.238,0.521,40.083,0.719
			c13.932,0.232,36.82-0.258,36.82-0.258c2.879,0.119,4.765-2.998,3.299-5.479c-1.608-2.72-4.677-5.628-10.527-6.753
			c-12.202-2.349-32.538-11.313-39.668-27.621C377.011,1545.314,352.758,1566.404,352.758,1566.404z"/>
		<path style="fill:#707FE5;" d="M526.703,1209.293c0,0-19.484,68.178-75.326,186.573
			c-55.842,118.395-58.256,175.452-58.256,175.452s-8.455,2.99-19.667,1.795c-12.133-1.294-20.696-6.709-20.696-6.709
			s3.617-140.921,29.994-200.668c26.378-59.748,31.753-223.243,31.753-223.243L526.703,1209.293z"/>
		<path style="fill:#8C9DF4;" d="M557.983,1150.632c0,0,1.552,105.57-16.714,235.193c-18.266,129.622-9.726,189.904-9.726,189.904
			s-4.841,3.525-19.732,3.467c-17.433-0.069-26.363-7.271-26.363-7.271s-26.143-129.67-18.648-194.55
			c7.496-64.879-35.801-222.629-35.801-222.629L557.983,1150.632z"/>
		<path style="fill:#FFB27D;" d="M515.563,887.473c-0.185,8.283-1.288,17.303-4.603,21.721l-18.592,9.757l-20.614-15.28
			c0,0,7.546-16.75,5.705-41.234c-0.185-1.472-0.919-10.857-0.919-11.042l10.308,5.153l27.977,13.989c0,0,0,0.553,0.186,1.288
			C515.192,874.588,515.563,880.659,515.563,887.473z"/>
		<path style="fill:#F99746;" d="M561.814,1162.147c1.891,18.83-142.513,32.374-149.255,1.528
			c-4.41-20.112-0.479-121.921,16.507-194.414c9.076-38.732,28.278-69.297,45.545-74.371c6.358-1.867,34.843,5.572,38.837,7.53
			c13.203,6.476,24.405,19.943,26.248,26.149c2.624,8.808,5.634,20.112,8.096,32.561c2.648,13.497,4.666,28.348,4.807,42.884
			c0.104,10.978,1.214,25.781,2.695,42.067c0.781,8.563,1.667,17.522,2.555,26.564c0,0.058,0.023,0.104,0.023,0.162
			c0.116,1.75,0.699,15.225,1.388,31.196c0.525,12.261,1.108,25.991,1.586,37.04
			C561.371,1152.803,561.744,1161.518,561.814,1162.147z"/>
		<path style="fill:#FCA56B;" d="M515.563,887.473c-10.492-4.233-30.557-13.806-36.08-24.668c-2.393-4.786,1.29-6.258,7.364-6.258
			l27.977,13.989c0,0,0,0.553,0.186,1.288C515.192,874.588,515.563,880.659,515.563,887.473z"/>
		<path style="fill:#FFB27D;" d="M528.298,868.816c0,0-50.248,15.674-59.528-15.768c-9.279-31.442-22.015-50.595,9.676-61.933
			c31.69-11.337,41.491-1.187,47.142,8.555C531.237,809.411,541.129,863.929,528.298,868.816z"/>
		<path style="fill:#163560;" d="M523.613,796.641c0,0-3.204,36.589-10.771,35.001c-7.567-1.589-14.429-2.767-13.322,8.263
			c1.108,11.029,1.465,24.286-21.855,26.238c-23.319,1.951-46.705-58.71-40.299-70.097
			C455.85,763.192,550.329,756.562,523.613,796.641z"/>
		<path style="fill:#EA8336;" d="M544.279,1163.933c-84.786-35.914-80.19-159.51-81.677-162.867l90.886,88.434
			c-1.114,11.052-2.195,22.632-3.296,34.316c-0.015,0.073,0.004,0.138-0.011,0.213
			C549.899,1126.275,547.33,1143.508,544.279,1163.933z"/>
		<g>
			<path style="fill:#0B2E59;" d="M629.221,1338.746l-67.321-41.551c-43.95-27.126-57.716-85.28-30.59-129.231l251.084-406.806
				c27.126-43.952,85.279-57.717,129.23-30.59l67.32,41.551c43.951,27.126,57.716,85.279,30.591,129.232l-251.084,406.807
				C731.324,1352.108,673.171,1365.873,629.221,1338.746z"/>
			<path style="fill:#7C9AF2;" d="M937.838,865.102c4.607-7.466,14.395-9.782,21.86-5.175c7.466,4.608,9.783,14.396,5.175,21.862
				c-4.607,7.467-14.396,9.782-21.861,5.175C935.546,882.356,933.229,872.568,937.838,865.102z"/>
			<g>
				<g>
					<path style="fill:#7C9AF2;" d="M824.246,879.046l-17.749-10.955c-4.021-2.481-5.279-7.801-2.798-11.82l5.56-9.01
						c2.481-4.019,7.801-5.279,11.821-2.798l17.75,10.956c4.021,2.482,5.279,7.8,2.798,11.82l-5.56,9.009
						C833.587,880.269,828.267,881.527,824.246,879.046z"/>
					<path style="fill:#7C9AF2;" d="M866.029,904.834l-17.75-10.955c-4.021-2.481-5.279-7.801-2.798-11.82l5.56-9.009
						c2.481-4.021,7.802-5.279,11.822-2.798l17.749,10.954c4.021,2.481,5.279,7.802,2.798,11.821l-5.56,9.01
						C875.369,906.057,870.05,907.315,866.029,904.834z"/>
					<path style="fill:#7C9AF2;" d="M907.812,930.623l-17.749-10.955c-4.021-2.482-5.279-7.801-2.798-11.821l5.56-9.009
						c2.482-4.021,7.801-5.279,11.821-2.798l17.75,10.955c4.021,2.482,5.279,7.801,2.798,11.82l-5.56,9.01
						C917.152,931.845,911.832,933.104,907.812,930.623z"/>
				</g>
				<g>
					<path style="fill:#7C9AF2;" d="M801.375,916.102l-17.751-10.954c-4.02-2.482-5.279-7.802-2.798-11.821l5.56-9.01
						c2.482-4.019,7.802-5.279,11.821-2.798l17.75,10.956c4.02,2.481,5.279,7.8,2.798,11.82l-5.561,9.009
						C810.714,917.325,805.395,918.584,801.375,916.102z"/>
					<path style="fill:#7C9AF2;" d="M843.157,941.892l-17.75-10.956c-4.019-2.48-5.279-7.8-2.798-11.82l5.56-9.009
						c2.482-4.021,7.801-5.279,11.82-2.798l17.751,10.955c4.021,2.481,5.279,7.801,2.798,11.821l-5.561,9.009
						C852.497,943.114,847.178,944.373,843.157,941.892z"/>
					<path style="fill:#7C9AF2;" d="M884.94,967.68l-17.751-10.955c-4.02-2.481-5.279-7.801-2.797-11.82l5.56-9.009
						c2.482-4.021,7.802-5.28,11.821-2.799l17.75,10.955c4.021,2.481,5.279,7.802,2.798,11.821l-5.561,9.01
						C894.279,968.902,888.961,970.162,884.94,967.68z"/>
				</g>
				<g>
					<path style="fill:#7C9AF2;" d="M780.624,949.725l-17.75-10.955c-4.021-2.481-5.28-7.802-2.799-11.822l5.56-9.008
						c2.482-4.021,7.801-5.279,11.821-2.798l17.75,10.955c4.02,2.48,5.279,7.801,2.798,11.821l-5.56,9.008
						C789.964,950.947,784.644,952.205,780.624,949.725z"/>
					<path style="fill:#7C9AF2;" d="M822.406,975.513l-17.749-10.954c-4.021-2.482-5.28-7.802-2.799-11.822l5.56-9.009
						c2.482-4.021,7.8-5.279,11.821-2.798l17.75,10.955c4.02,2.481,5.278,7.801,2.797,11.821l-5.56,9.009
						C831.746,976.735,826.426,977.994,822.406,975.513z"/>
					<path style="fill:#7C9AF2;" d="M864.189,1001.302l-17.75-10.956c-4.021-2.481-5.28-7.8-2.799-11.82l5.561-9.009
						c2.481-4.021,7.801-5.28,11.822-2.799l17.749,10.956c4.02,2.481,5.279,7.801,2.798,11.82l-5.561,9.01
						C873.529,1002.523,868.209,1003.783,864.189,1001.302z"/>
				</g>
			</g>
			<path style="fill:#7C9AF2;" d="M638.707,1258.614l-14.23-8.783c-4.76-2.938-6.249-9.234-3.313-13.992l2.002-3.245
				c2.938-4.758,9.234-6.248,13.992-3.312l14.232,8.784c4.759,2.938,6.249,9.233,3.312,13.992l-2.002,3.244
				C649.763,1260.061,643.467,1261.551,638.707,1258.614z"/>
			<path style="fill:#7C9AF2;" d="M581.321,1224.215l-14.232-8.784c-4.758-2.938-6.248-9.233-3.312-13.992l2.002-3.243
				c2.938-4.759,9.234-6.249,13.992-3.313l14.231,8.783c4.759,2.938,6.249,9.234,3.313,13.992l-2.003,3.245
				C592.378,1225.661,586.08,1227.151,581.321,1224.215z"/>
			<path style="fill:#7C9AF2;" d="M696.168,1295.098l-14.232-8.783c-4.759-2.938-6.249-9.234-3.312-13.992l2.002-3.243
				c2.938-4.759,9.233-6.25,13.992-3.313l14.232,8.784c4.759,2.937,6.248,9.232,3.312,13.992l-2.002,3.243
				C707.223,1296.544,700.927,1298.035,696.168,1295.098z"/>
			<g>
				<path style="fill:#7C9AF2;" d="M749.508,1092.089l-24.216-14.946c-4.759-2.938-6.249-9.234-3.313-13.992l14.947-24.217
					c2.937-4.758,9.232-6.249,13.992-3.312l24.215,14.946c4.76,2.937,6.25,9.233,3.313,13.992l-14.946,24.216
					C760.563,1093.535,754.267,1095.025,749.508,1092.089z"/>
				<path style="fill:#F77D48;" d="M691.763,1056.447l-24.217-14.946c-4.758-2.937-6.248-9.233-3.312-13.992l14.946-24.216
					c2.938-4.759,9.233-6.249,13.992-3.313l24.217,14.946c4.758,2.938,6.249,9.233,3.312,13.993l-14.946,24.216
					C702.818,1057.895,696.521,1059.385,691.763,1056.447z"/>
				<path style="fill:#F77D48;" d="M805.001,1126.339l-24.216-14.946c-4.759-2.938-6.249-9.233-3.312-13.992l14.945-24.216
					c2.938-4.759,9.233-6.25,13.992-3.313l24.216,14.946c4.759,2.938,6.25,9.234,3.312,13.992l-14.946,24.217
					C816.057,1127.785,809.76,1129.275,805.001,1126.339z"/>
				<path style="fill:#F77D48;" d="M784.406,1035.546L760.19,1020.6c-4.759-2.937-6.249-9.234-3.313-13.992l14.946-24.217
					c2.938-4.758,9.234-6.248,13.992-3.312l24.217,14.946c4.758,2.938,6.248,9.233,3.311,13.992l-14.946,24.216
					C795.461,1036.993,789.165,1038.483,784.406,1035.546z"/>
				<path style="fill:#F77D48;" d="M714.61,1148.631l-24.217-14.946c-4.758-2.938-6.249-9.234-3.312-13.992l14.946-24.217
					c2.937-4.758,9.233-6.249,13.992-3.312l24.217,14.946c4.758,2.937,6.247,9.233,3.311,13.992l-14.946,24.216
					C725.665,1150.077,719.368,1151.567,714.61,1148.631z"/>
				<path style="fill:#FFFFFF;" d="M772.646,1009.205l17.137,10.576c1.626,1.005,3.71-0.241,3.594-2.15l-1.057-17.458
					c-0.099-1.63-1.782-2.668-3.283-2.026l-16.08,6.882C771.199,1005.78,771.019,1008.2,772.646,1009.205z"/>
				<path style="fill:#FFFFFF;" d="M728.44,1119.168l-17.137-10.577c-1.627-1.004-3.711,0.243-3.595,2.151l1.058,17.457
					c0.099,1.63,1.782,2.669,3.283,2.026l16.08-6.88C729.887,1122.592,730.066,1120.172,728.44,1119.168z"/>
				<path style="fill:#FFFFFF;" d="M693.579,1040.732l10.577-17.137c1.004-1.627-0.243-3.71-2.151-3.594l-17.457,1.057
					c-1.629,0.099-2.669,1.783-2.026,3.283l6.88,16.079C690.154,1042.179,692.575,1042.359,693.579,1040.732z"/>
				<path style="fill:#FFFFFF;" d="M805.638,1086.23l-10.576,17.137c-1.005,1.627,0.241,3.71,2.15,3.595l17.457-1.058
					c1.63-0.099,2.669-1.782,2.027-3.283l-6.882-16.079C809.063,1084.784,806.643,1084.604,805.638,1086.23z"/>
			</g>
			<g>
				<g>
					<path style="fill:#F77D48;" d="M820.297,765.67c12.646-20.488,38.917-27.212,58.677-15.016
						c19.76,12.196,25.526,38.692,12.881,59.181c-12.646,20.49-38.916,27.212-58.676,15.017
						C813.418,812.655,807.651,786.159,820.297,765.67z"/>
				</g>
				<g>
					<path style="fill:#FFFFFF;" d="M843.25,808.532c-11.051-6.819-14.287-21.69-7.215-33.148
						c4.267-6.914,11.545-11.316,19.469-11.777c1.252-0.073,2.29,0.898,2.32,2.167c0.032,1.27-0.957,2.358-2.208,2.43
						c-6.417,0.374-12.31,3.939-15.765,9.536c-5.726,9.275-3.105,21.314,5.841,26.837c8.946,5.522,20.883,2.467,26.607-6.81
						c3.436-5.567,3.993-12.404,1.49-18.289c-0.491-1.154,0.044-2.523,1.194-3.059c1.152-0.536,2.483-0.036,2.975,1.117
						c3.09,7.267,2.402,15.71-1.842,22.587C869.044,811.58,854.301,815.354,843.25,808.532z"/>
				</g>
				<g>
					<path style="fill:#FFFFFF;" d="M856.076,787.753L856.076,787.753c-1.05-0.648-1.378-2.037-0.732-3.086l14.7-23.817
						c0.648-1.049,2.037-1.378,3.086-0.731l0,0c1.051,0.648,1.379,2.036,0.73,3.087l-14.7,23.816
						C858.515,788.071,857.126,788.4,856.076,787.753z"/>
				</g>
			</g>
		</g>
		<g>
			<path style="fill:#FFB27D;" d="M663.442,1168.069c0,0,8.231,1.766,12.208,0.671c1.384-0.38,8.81-0.523,12.707,5.698
				c3.558,5.679,22.075,6.833,22.075,6.833c4.615,4.729-6.021,20.765-16.843,18.119c-8.826-2.158-30.739-13.66-42.121-17.918
				C639.245,1176.899,663.442,1168.069,663.442,1168.069z"/>
			<path style="fill:#FFB27D;" d="M671.674,1169.835c0,0,8.621-2.717,13.419-2.387c4.8,0.332,10.589-2.284,9.755,0.08
				c-0.833,2.365-8.334,4.718-9.941,7.301C683.298,1177.411,671.674,1169.835,671.674,1169.835z"/>
		</g>
		<path style="fill:#F99746;" d="M661.357,1159.633c0,0-60.159-39.144-79.914-57.323c-9.794-9.014-45.777-144.088-45.777-144.088
			l-7.426,3.748c-17.507-9.97-40.234-1.886-40.234-1.886s-21.313,9.301-24.594,26.326c-7.274,37.742,36.334,116.298,56.829,135.567
			c26.435,24.855,126.548,64.032,126.548,64.032s14.72,1.468,17.729-11.947C666.603,1164.773,661.357,1159.633,661.357,1159.633z"/>
	</g>
</g>
</svg>
